# xmcd CD database file
#
# Track frame offsets:
#	150
#	14315
#	34312
#	53805
#	75753
#	102837
#	123752
#	143145
#	164425
#	187069
#	209971
#	225303
#	248886
#	269505
#	290855
#
# Disc length: 4155 seconds
#
# Revision: 0
# Processed by: cddbd v1.5.1PL0 Copyright (c) Steve Scherf et al.
# Submitted via: CDex 1.51
#
DISCID=d710390f
DTITLE=Various Artist - 琉球的哀華 III
DYEAR=2004
DGENRE=JPop
TTITLE0=バイバイ沖縄（REMIX）
TTITLE1=童神
TTITLE2=ひのもとのうた
TTITLE3=花〜すべての人の心に花を
TTITLE4=元気でね
TTITLE5=Okinawan Shout〜ウチナーグチヴァージョン
TTITLE6=てぃんさぐの花
TTITLE7=あめりか通り
TTITLE8=琉球ムーン
TTITLE9=太陽（てぃだ）アカラ波キララ
TTITLE10=満天ぬ喜び
TTITLE11=イラヨイ月夜浜
TTITLE12=遠い道
TTITLE13=美ら島恋歌
TTITLE14=波ぬ花
EXTD=YEAR: 2004.6.2
EXTT0=
EXTT1=
EXTT2=
EXTT3=
EXTT4=
EXTT5=
EXTT6=
EXTT7=
EXTT8=
EXTT9=
EXTT10=
EXTT11=
EXTT12=
EXTT13=
EXTT14=
PLAYORDER=
